<svg width="111" height="49" viewBox="0 0 111 49" fill="none" xmlns="http://www.w3.org/2000/svg">
<path d="M22.1436 47.8052V25.8835C22.1436 25.7896 22.2154 25.7178 22.3093 25.7178H26.6362C26.7301 25.7178 26.802 25.7896 26.802 25.8835V43.7491C26.802 43.8431 26.8738 43.9149 26.9678 43.9149H34.6379C34.6931 43.9149 34.7429 43.9426 34.7705 43.9868L35.7597 45.3683C35.9531 45.639 36.1575 45.9098 36.3675 46.1695L37.6053 47.7003C37.6938 47.8108 37.6164 47.971 37.4782 47.971H22.3093C22.2154 47.971 22.1436 47.8992 22.1436 47.8052Z" fill="white"/>
<path d="M95.501 47.8052V25.8835C95.501 25.7896 95.5728 25.7178 95.6668 25.7178H99.9936C100.088 25.7178 100.159 25.7896 100.159 25.8835V43.7491C100.159 43.8431 100.231 43.9149 100.325 43.9149H107.995C108.051 43.9149 108.1 43.9426 108.128 43.9868L109.117 45.3683C109.31 45.639 109.515 45.9098 109.725 46.1695L110.963 47.7003C111.051 47.8108 110.974 47.971 110.836 47.971H95.6668C95.5728 47.971 95.501 47.8992 95.501 47.8052Z" fill="white"/>
<path d="M35.6152 37.0467C35.6152 29.5092 39.2182 24.9834 45.6063 24.9834C51.9943 24.9834 55.5365 29.5092 55.5365 37.1461C55.5365 44.7831 51.9999 48.7397 45.6063 48.7397C39.2127 48.7397 35.6152 44.551 35.6152 37.0467ZM51.2483 37.1461C51.2483 31.8854 49.2424 29.1058 45.6118 29.1058C41.9812 29.1058 39.9089 31.8854 39.9089 37.1461C39.9089 42.4069 42.0088 44.7555 45.6118 44.7555C48.745 44.7555 51.2483 42.4069 51.2483 37.1461Z" fill="white"/>
<path d="M57.4665 47.8052V25.8835C57.4665 25.7896 57.5383 25.7178 57.6322 25.7178H67.5956C71.6241 25.7178 73.7903 28.0663 73.7903 31.7853C73.7903 33.5592 72.8564 35.0733 71.5799 35.7862C71.4638 35.8525 71.4694 36.0183 71.591 36.0735C73.1769 36.8306 74.4092 38.3392 74.4092 41.3343C74.4092 45.3904 71.9004 47.971 66.7225 47.971H57.6267C57.5328 47.971 57.4609 47.8992 57.4609 47.8052H57.4665ZM61.622 29.7407V34.2334C61.622 34.3273 61.6939 34.3991 61.7878 34.3991H67.043C68.7451 34.3991 69.6458 33.5592 69.6458 31.9843C69.6458 30.2767 68.8114 29.5694 66.7944 29.5694H61.7878C61.6939 29.5694 61.622 29.6412 61.622 29.7352V29.7407ZM67.0707 44.1857C69.0545 44.1857 70.2315 42.8097 70.2315 41.0027C70.2315 39.0576 69.0545 38.19 67.1315 38.19H61.7823C61.6883 38.19 61.6165 38.2618 61.6165 38.3558V44.0199C61.6165 44.1139 61.6883 44.1857 61.7823 44.1857H67.0707Z" fill="white"/>
<path fill-rule="evenodd" clip-rule="evenodd" d="M79.0435 5.49286C78.2036 7.31092 76.7336 8.5598 75.2195 8.95214C74.3685 7.51538 74.3022 5.42102 75.2085 3.45928C76.0484 1.64123 77.5183 0.392347 79.0325 0C79.8669 1.40361 79.9498 3.43718 79.1043 5.36023L79.0435 5.49286Z" fill="#47BF72"/>
<path fill-rule="evenodd" clip-rule="evenodd" d="M75.2089 18.4124C76.0489 16.5999 77.5188 15.3455 79.0329 14.9531C79.8894 16.3899 79.9502 18.4842 79.044 20.446C78.204 22.2585 76.7341 23.5129 75.22 23.9053C74.3855 22.5017 74.3026 20.4681 75.1481 18.545L75.2089 18.4124Z" fill="#47BF72"/>
<path fill-rule="evenodd" clip-rule="evenodd" d="M76.3593 15.4227C75.0109 14.6269 73.0823 14.4722 71.209 15.1629C71.1869 15.174 71.1648 15.1795 71.1427 15.1906C71.1206 15.2016 71.0985 15.2072 71.0764 15.2182C69.1202 15.9753 67.7387 17.4784 67.3408 19.0588C68.6892 19.8545 70.6122 20.0093 72.4855 19.3185C74.5136 18.5725 75.9503 17.0473 76.3537 15.4282L76.3593 15.4227Z" fill="#47BF72"/>
<path fill-rule="evenodd" clip-rule="evenodd" d="M70.6771 10.0357C72.4896 10.8757 73.7385 12.3511 74.1309 13.8653C72.6996 14.7218 70.6053 14.7826 68.6491 13.8763C66.8365 13.0364 65.5877 11.5609 65.1953 10.0413C66.5934 9.20131 68.627 9.12394 70.5445 9.96942L70.6771 10.0302V10.0357Z" fill="#47BF72"/>
<path fill-rule="evenodd" clip-rule="evenodd" d="M73.6623 11.1843C74.458 9.83042 74.6072 7.90184 73.922 6.02852C73.922 6.02852 73.9054 5.98431 73.8944 5.96221C73.8944 5.96221 73.8778 5.918 73.8667 5.8959C73.1097 3.93969 71.6121 2.55266 70.0317 2.15479C69.2359 3.50866 69.0867 5.43171 69.772 7.31056C70.5125 9.3386 72.0376 10.7809 73.6568 11.1898L73.6623 11.1843Z" fill="#47BF72"/>
<path fill-rule="evenodd" clip-rule="evenodd" d="M77.8942 8.48213C79.2425 9.27787 81.1711 9.4326 83.0389 8.74185C83.061 8.7308 83.0831 8.72527 83.1052 8.71422C83.1273 8.70317 83.1494 8.69764 83.1715 8.68659C85.1277 7.92953 86.5092 6.42645 86.9071 4.84601C85.5588 4.05027 83.6357 3.89554 81.7569 4.58629C79.7288 5.3323 78.2921 6.85748 77.8887 8.4766L77.8942 8.48213Z" fill="#47BF72"/>
<path fill-rule="evenodd" clip-rule="evenodd" d="M83.57 13.8758C81.7574 13.0358 80.5086 11.5604 80.1162 10.0462C81.5474 9.18971 83.6418 9.12893 85.598 10.0352C87.4105 10.8751 88.6594 12.3506 89.0518 13.8702C87.6537 14.7102 85.6201 14.7876 83.7026 13.9421L83.57 13.8813V13.8758Z" fill="#47BF72"/>
<path fill-rule="evenodd" clip-rule="evenodd" d="M80.5864 12.7207C79.7906 14.0746 79.6414 16.0032 80.3267 17.8765C80.3377 17.9041 80.3432 17.9262 80.3543 17.9483C80.3598 17.9704 80.3709 17.9925 80.3764 18.0146C81.1334 19.9708 82.631 21.3579 84.2114 21.7557C85.0072 20.4019 85.1564 18.4788 84.4712 16.6C83.7307 14.5719 82.2055 13.1296 80.5864 12.7207Z" fill="#47BF72"/>
<path d="M2.17155 22.6959V0.774176C2.17155 0.680234 2.24339 0.608398 2.33733 0.608398H18.3572C18.4512 0.608398 18.523 0.680234 18.523 0.774176L17.241 4.3274C17.241 4.42134 17.1691 4.49318 17.0752 4.49318H6.8576C6.76366 4.49318 6.69182 4.56502 6.69182 4.65896V9.0853C6.69182 9.17924 6.76366 9.25108 6.8576 9.25108H16.8873C16.9813 9.25108 17.0531 9.32292 17.0531 9.41686V13.0088C17.0531 13.1027 16.9813 13.1746 16.8873 13.1746H6.8576C6.76366 13.1746 6.69182 13.2464 6.69182 13.3403V18.7392C6.69182 18.8332 6.76366 18.905 6.8576 18.905H18.3462C18.4401 18.905 18.512 18.9769 18.512 19.0708V22.6959C18.512 22.7898 18.4401 22.8617 18.3462 22.8617H2.3318C2.23786 22.8617 2.16602 22.7898 2.16602 22.6959H2.17155Z" fill="white"/>
<path d="M37.2223 22.6959V8.85321C37.2223 8.6598 36.946 8.62111 36.8963 8.809L31.6521 22.8782C31.63 22.9501 31.5692 22.9998 31.4918 22.9998H29.9335C29.8561 22.9998 29.7953 22.9501 29.7732 22.8782L24.6396 8.88084C24.5898 8.69295 24.3135 8.73164 24.3135 8.92505V22.6959C24.3135 22.7898 24.2417 22.8617 24.1477 22.8617H20.158C20.064 22.8617 19.9922 22.7898 19.9922 22.6959V0.774176C19.9922 0.680234 20.064 0.608398 20.158 0.608398H25.2806C25.3579 0.608398 25.4243 0.65813 25.4408 0.735494L30.685 16.2746C30.7292 16.4404 30.9668 16.4404 31.0055 16.2746L36.6973 0.735494C36.7139 0.663656 36.7802 0.608398 36.8576 0.608398H41.4C41.4939 0.608398 41.5657 0.680234 41.5657 0.774176V22.6959C41.5657 22.7898 41.4939 22.8617 41.4 22.8617H37.377C37.2831 22.8617 37.2112 22.7898 37.2112 22.6959H37.2223Z" fill="white"/>
<path d="M43.291 22.6959V0.774176C43.291 0.680234 43.3629 0.608398 43.4568 0.608398H54.2491C58.6036 0.608398 60.9522 2.95695 60.9522 6.67596C60.9522 8.44428 59.9464 9.95841 58.5704 10.6768C58.4489 10.7376 58.4544 10.9144 58.5815 10.9697C60.2946 11.7267 61.6263 13.2353 61.6263 16.2249C61.6263 20.281 58.9131 22.8617 53.3152 22.8617H43.4623C43.3684 22.8617 43.2965 22.7898 43.2965 22.6959H43.291ZM47.7781 4.62581V9.11845C47.7781 9.2124 47.85 9.28424 47.9439 9.28424H53.6412C55.4869 9.28424 56.454 8.44428 56.454 6.86937C56.454 5.16183 55.5477 4.4545 53.3705 4.4545H47.9384C47.8445 4.4545 47.7726 4.52634 47.7726 4.62028L47.7781 4.62581ZM53.6744 19.0708C55.8185 19.0708 57.095 17.6948 57.095 15.8878C57.095 13.9427 55.824 13.0751 53.7462 13.0751H47.9494C47.8555 13.0751 47.7837 13.1469 47.7837 13.2409V18.905C47.7837 18.999 47.8555 19.0708 47.9494 19.0708H53.6799H53.6744Z" fill="white"/>
<path d="M83.6864 25.5972C80.4592 33.0297 77.2375 40.4622 74.0104 47.9002C73.9606 48.0107 74.038 48.1323 74.1651 48.1323H78.0112C78.083 48.1323 78.1438 48.0881 78.1659 48.0273L79.8458 43.9933C79.8734 43.9325 79.9342 43.8883 80.0005 43.8883H86.9633C87.0296 43.8883 87.096 43.9325 87.1125 43.9988L88.7095 48.0273C88.7372 48.0936 88.8035 48.1378 88.8643 48.1378H93.4453C93.5669 48.1378 93.6498 48.0107 93.6001 47.9057C90.3453 40.4732 87.0904 33.0407 83.8356 25.6027C83.8135 25.5751 83.7804 25.5585 83.7472 25.564C83.7085 25.564 83.6864 25.6027 83.6809 25.6027L83.6864 25.5972ZM85.416 40.2909H81.6418C81.5202 40.2909 81.4428 40.1693 81.487 40.0588L83.4156 35.4003C83.4709 35.2622 83.6698 35.2622 83.7251 35.4003L85.5708 40.0643C85.615 40.1748 85.5376 40.2909 85.416 40.2909Z" fill="white"/>
<path d="M20.706 36.3286V47.9829C20.706 47.9829 20.6839 48.0326 20.6562 48.0326H17.0146C16.9207 48.0326 16.8488 47.9608 16.8488 47.8779L16.8046 45.126L16.777 43.4074V43.3245C16.777 43.1753 16.5117 43.1034 16.4841 43.2361C16.473 43.2858 16.4565 43.3466 16.4399 43.4074C16.3404 43.8108 16.1304 44.4352 15.7712 45.126C14.9258 46.7396 13.2403 48.6737 10.0905 48.8063C3.929 49.066 0 43.0758 0 36.8756C0 32.6095 1.58596 28.8905 4.66948 26.8183C6.33281 25.691 8.4327 25.0444 10.9581 25.0444C13.2459 25.0444 15.3071 25.6302 16.9428 26.658C19.0316 27.9732 20.4186 30.0178 20.6618 32.4603C20.6728 32.5598 20.5899 32.6482 20.4905 32.6482H16.2465C16.1967 32.6482 16.1415 32.6206 16.1194 32.5653C16.042 32.4217 15.9646 32.2835 15.8873 32.1509C14.7434 30.2499 12.8756 28.979 10.7481 28.9016C10.8199 28.9016 10.8918 28.9016 10.9636 28.9016H10.5436C9.90261 28.9016 9.27818 29.0121 8.69242 29.2166C7.83037 29.5095 7.04567 30.0068 6.37702 30.6644C5.00657 31.9851 4.11136 33.9634 4.02847 36.1793C4.02847 36.2899 4.02847 36.3949 4.02847 36.4999V36.522C4.02847 36.6491 4.02846 36.7762 4.03951 36.9033C4.19424 40.2741 6.22229 43.0537 8.94109 43.855C9.29476 43.96 9.65394 44.0539 10.0242 44.065C10.2342 44.0705 10.4442 44.065 10.6542 44.0539C10.7149 44.0539 10.7757 44.0429 10.8365 44.0318C11.5604 43.9268 12.2622 43.6118 12.7651 43.0648C12.7706 43.0592 12.7761 43.0537 12.7817 43.0482C13.0524 42.7774 13.7542 42.0259 14.2571 40.8046C14.3179 40.6554 14.4118 40.4233 14.5003 40.1305C14.5058 40.1139 14.5113 40.0973 14.5168 40.0752C14.5168 40.0641 14.5168 40.0531 14.5168 40.042C14.5168 40.0089 14.5168 39.9702 14.4947 39.926C14.4284 39.8099 14.2571 39.7823 14.0913 39.7823C13.8592 39.7823 13.6437 39.7823 13.4337 39.7934C12.4059 39.8044 11.6986 39.8044 11.6046 39.7934C11.5825 39.7934 11.5273 39.7823 11.4831 39.7436C11.4554 39.7105 11.4333 39.6718 11.4333 39.622V36.1241C11.4333 36.1241 11.4554 36.0744 11.4831 36.0744H20.4573C20.5954 36.0744 20.7115 36.1849 20.7115 36.3286H20.706Z" fill="white"/>
</svg>
