<svg xmlns="http://www.w3.org/2000/svg" viewBox="0 0 64 64" fill="none">
  <rect width="64" height="64" rx="14" fill="#0c0a1a"/>
  <g transform="translate(32,32)">
    <g fill="#4abe6a">
      <path d="M0-4 C3-9 4-16 0-20 C-4-16 -3-9 0-4Z" transform="rotate(0)"/>
      <path d="M0-4 C3-9 4-16 0-20 C-4-16 -3-9 0-4Z" transform="rotate(45)"/>
      <path d="M0-4 C3-9 4-16 0-20 C-4-16 -3-9 0-4Z" transform="rotate(90)"/>
      <path d="M0-4 C3-9 4-16 0-20 C-4-16 -3-9 0-4Z" transform="rotate(135)"/>
      <path d="M0-4 C3-9 4-16 0-20 C-4-16 -3-9 0-4Z" transform="rotate(180)"/>
      <path d="M0-4 C3-9 4-16 0-20 C-4-16 -3-9 0-4Z" transform="rotate(225)"/>
      <path d="M0-4 C3-9 4-16 0-20 C-4-16 -3-9 0-4Z" transform="rotate(270)"/>
      <path d="M0-4 C3-9 4-16 0-20 C-4-16 -3-9 0-4Z" transform="rotate(315)"/>
    </g>
  </g>
</svg>
