<svg width="32" height="32" viewBox="0 0 32 32" fill="none" xmlns="http://www.w3.org/2000/svg">
<rect width="32" height="32" rx="7" fill="#0f172a"/>
<g transform="translate(-61.05, 4) scale(0.95)">
<path fill-rule="evenodd" clip-rule="evenodd" d="M79.0435 5.49286C78.2036 7.31092 76.7336 8.5598 75.2195 8.95214C74.3685 7.51538 74.3022 5.42102 75.2085 3.45928C76.0484 1.64123 77.5183 0.392347 79.0325 0C79.8669 1.40361 79.9498 3.43718 79.1043 5.36023L79.0435 5.49286Z" fill="#47BF72"/>
<path fill-rule="evenodd" clip-rule="evenodd" d="M75.2089 18.4124C76.0489 16.5999 77.5188 15.3455 79.0329 14.9531C79.8894 16.3899 79.9502 18.4842 79.044 20.446C78.204 22.2585 76.7341 23.5129 75.22 23.9053C74.3855 22.5017 74.3026 20.4681 75.1481 18.545L75.2089 18.4124Z" fill="#47BF72"/>
<path fill-rule="evenodd" clip-rule="evenodd" d="M76.3593 15.4227C75.0109 14.6269 73.0823 14.4722 71.209 15.1629C71.1869 15.174 71.1648 15.1795 71.1427 15.1906C71.1206 15.2016 71.0985 15.2072 71.0764 15.2182C69.1202 15.9753 67.7387 17.4784 67.3408 19.0588C68.6892 19.8545 70.6122 20.0093 72.4855 19.3185C74.5136 18.5725 75.9503 17.0473 76.3537 15.4282L76.3593 15.4227Z" fill="#47BF72"/>
<path fill-rule="evenodd" clip-rule="evenodd" d="M70.6771 10.0357C72.4896 10.8757 73.7385 12.3511 74.1309 13.8653C72.6996 14.7218 70.6053 14.7826 68.6491 13.8763C66.8365 13.0364 65.5877 11.5609 65.1953 10.0413C66.5934 9.20131 68.627 9.12394 70.5445 9.96942L70.6771 10.0302V10.0357Z" fill="#47BF72"/>
<path fill-rule="evenodd" clip-rule="evenodd" d="M73.6623 11.1843C74.458 9.83042 74.6072 7.90184 73.922 6.02852C73.922 6.02852 73.9054 5.98431 73.8944 5.96221C73.8944 5.96221 73.8778 5.918 73.8667 5.8959C73.1097 3.93969 71.6121 2.55266 70.0317 2.15479C69.2359 3.50866 69.0867 5.43171 69.772 7.31056C70.5125 9.3386 72.0376 10.7809 73.6568 11.1898L73.6623 11.1843Z" fill="#47BF72"/>
<path fill-rule="evenodd" clip-rule="evenodd" d="M77.8942 8.48213C79.2425 9.27787 81.1711 9.4326 83.0389 8.74185C83.061 8.7308 83.0831 8.72527 83.1052 8.71422C83.1273 8.70317 83.1494 8.69764 83.1715 8.68659C85.1277 7.92953 86.5092 6.42645 86.9071 4.84601C85.5588 4.05027 83.6357 3.89554 81.7569 4.58629C79.7288 5.3323 78.2921 6.85748 77.8887 8.4766L77.8942 8.48213Z" fill="#47BF72"/>
<path fill-rule="evenodd" clip-rule="evenodd" d="M83.57 13.8758C81.7574 13.0358 80.5086 11.5604 80.1162 10.0462C81.5474 9.18971 83.6418 9.12893 85.598 10.0352C87.4105 10.8751 88.6594 12.3506 89.0518 13.8702C87.6537 14.7102 85.6201 14.7876 83.7026 13.9421L83.57 13.8813V13.8758Z" fill="#47BF72"/>
<path fill-rule="evenodd" clip-rule="evenodd" d="M80.5864 12.7207C79.7906 14.0746 79.6414 16.0032 80.3267 17.8765C80.3377 17.9041 80.3432 17.9262 80.3543 17.9483C80.3598 17.9704 80.3709 17.9925 80.3764 18.0146C81.1334 19.9708 82.631 21.3579 84.2114 21.7557C85.0072 20.4019 85.1564 18.4788 84.4712 16.6C83.7307 14.5719 82.2055 13.1296 80.5864 12.7207Z" fill="#47BF72"/>
</g>
</svg>
